<svg xmlns="http://www.w3.org/2000/svg" viewBox="0 0 64 64" role="img" aria-label="Daily Outfit logo">
  <defs>
    <linearGradient id="bg" x1="8" y1="6" x2="56" y2="58" gradientUnits="userSpaceOnUse">
      <stop stop-color="#FFF9F1"/>
      <stop offset="1" stop-color="#EFE0D2"/>
    </linearGradient>
  </defs>
  <rect width="64" height="64" rx="15" fill="url(#bg)"/>
  <path d="M49 13l1.8 4.8 4.9 1.8-4.9 1.8L49 26.3l-1.8-4.9-4.9-1.8 4.9-1.8L49 13z" fill="#C89A62"/>
  <path d="M32 22v-5a4.8 4.8 0 1 1 5.1 4.8" fill="none" stroke="#202324" stroke-width="2.8" stroke-linecap="round"/>
  <path d="M32 22L12.5 33.1a2.8 2.8 0 0 0 1.4 5.2h36.2a2.8 2.8 0 0 0 1.4-5.2L32 22z" fill="none" stroke="#202324" stroke-width="3.4" stroke-linejoin="round" stroke-linecap="round"/>
  <path d="M17.5 38.5c1.5-6.2 4.2-11 7.9-14.4l7.7 1.6-4 30H14.4l3.1-17.2z" fill="#D5A066"/>
  <path d="M25.4 24.1c-3.1 6-4.1 14.9-2.7 31.6h8.4l3.5-29.5-1.5-.5-7.7-1.6z" fill="#E5BD8B"/>
  <path d="M30 23.7l5.5-1.7 7.4 2.7c-.3 8.4-1.8 16.8-4.3 25.1-5.7-.4-10-2-12.8-4.9 2.1-5.5 3.5-12.6 4.2-21.2z" fill="#FFFDF9"/>
  <path d="M37.7 26.3h11.7c1.2 0 2.1.9 2.1 2.1l-1 27.3H37l.7-29.4z" fill="#17191A"/>
  <path d="M44.4 26.3v29.4M37.8 28.6h13.7" stroke="#3A3C3D" stroke-width=".7" stroke-linecap="round"/>
  <circle cx="46.1" cy="28.6" r=".8" fill="#C89A62"/>
</svg>
